<svg width="401" height="345" viewBox="0 0 401 345" fill="none" xmlns="http://www.w3.org/2000/svg">
<g clip-path="url(#clip0_11_241)">
<path d="M17.0287 3.05176e-05C12.514 0.00517051 8.18567 1.80152 4.99327 4.99499C1.80088 8.18846 0.00513262 12.5183 0 17.0345V327.966C0.0052074 332.482 1.80098 336.812 4.99337 340.005C8.18576 343.199 12.5141 344.995 17.0287 345H187.284C191.799 344.995 196.127 343.199 199.319 340.005C202.512 336.812 204.307 332.482 204.313 327.966V17.0345C204.307 12.5182 202.512 8.18844 199.319 4.99498C196.127 1.80152 191.799 0.00516908 187.284 3.05176e-05H17.0287Z" fill="#172A3A"/>
<path d="M22.5943 9.67822C19.1691 9.68212 15.8852 11.045 13.4632 13.4678C11.0412 15.8906 9.67885 19.1755 9.67496 22.6019V322.398C9.6788 325.824 11.0412 329.109 13.4632 331.532C15.8852 333.955 19.169 335.318 22.5943 335.322H181.718C185.144 335.318 188.427 333.955 190.849 331.532C193.271 329.109 194.634 325.824 194.638 322.398V22.6019C194.634 19.1755 193.271 15.8906 190.849 13.4678C188.427 11.045 185.144 9.68212 181.718 9.67822H22.5943Z" fill="white"/>
<path d="M178.987 72.8643H25.3255C24.5711 72.8635 23.8478 72.5633 23.3144 72.0296C22.7809 71.496 22.4808 70.7725 22.4799 70.0178V31.8881C22.4808 31.1335 22.7809 30.41 23.3144 29.8763C23.8478 29.3427 24.5711 29.0425 25.3255 29.0416H178.987C179.742 29.0425 180.465 29.3427 180.998 29.8763C181.532 30.41 181.832 31.1335 181.833 31.8881V70.0178C181.832 70.7725 181.532 71.496 180.998 72.0296C180.465 72.5633 179.742 72.8635 178.987 72.8643V72.8643ZM25.3255 30.1802C24.8728 30.1807 24.4389 30.3608 24.1188 30.681C23.7987 31.0012 23.6186 31.4353 23.6182 31.8881V70.0178C23.6186 70.4706 23.7987 70.9048 24.1188 71.225C24.4389 71.5452 24.8728 71.7252 25.3255 71.7257H178.987C179.44 71.7253 179.874 71.5452 180.194 71.225C180.514 70.9048 180.694 70.4706 180.694 70.0178V31.8881C180.694 31.4353 180.514 31.0012 180.194 30.681C179.874 30.3608 179.44 30.1807 178.987 30.1802L25.3255 30.1802Z" fill="#172A3A"/>
<path d="M178.987 223.731H25.3255C24.5711 223.73 23.8478 223.43 23.3144 222.896C22.7809 222.362 22.4808 221.639 22.4799 220.884V150.304C22.4808 149.549 22.7809 148.826 23.3144 148.292C23.8478 147.758 24.5711 147.458 25.3255 147.457H178.987C179.742 147.458 180.465 147.759 180.998 148.292C181.532 148.826 181.832 149.549 181.833 150.304V220.884C181.832 221.639 181.532 222.362 180.998 222.896C180.465 223.43 179.742 223.73 178.987 223.731V223.731ZM25.3255 148.596C24.8728 148.597 24.4389 148.777 24.1188 149.097C23.7987 149.417 23.6186 149.851 23.6182 150.304V220.884C23.6186 221.337 23.7987 221.771 24.1188 222.091C24.4389 222.411 24.8728 222.592 25.3255 222.592H178.987C179.44 222.592 179.874 222.412 180.194 222.091C180.514 221.771 180.694 221.337 180.694 220.884V150.304C180.694 149.851 180.514 149.417 180.194 149.097C179.874 148.777 179.44 148.597 178.987 148.596L25.3255 148.596Z" fill="#172A3A"/>
<path d="M177.849 132.072H109.555C108.8 132.071 108.077 131.771 107.544 131.238C107.01 130.704 106.71 129.98 106.709 129.226V91.096C106.71 90.3414 107.01 89.6179 107.544 89.0842C108.077 88.5506 108.8 88.2504 109.555 88.2495H177.849C178.603 88.2504 179.327 88.5506 179.86 89.0842C180.393 89.6179 180.694 90.3414 180.694 91.096V129.226C180.694 129.98 180.393 130.704 179.86 131.238C179.327 131.771 178.603 132.071 177.849 132.072V132.072ZM109.555 89.3881C109.102 89.3886 108.668 89.5687 108.348 89.8889C108.028 90.2091 107.848 90.6432 107.847 91.0961V129.226C107.848 129.679 108.028 130.113 108.348 130.433C108.668 130.753 109.102 130.933 109.555 130.934H177.849C178.302 130.933 178.736 130.753 179.056 130.433C179.376 130.113 179.556 129.679 179.556 129.226V91.096C179.556 90.6432 179.376 90.2091 179.056 89.8889C178.736 89.5687 178.302 89.3886 177.849 89.3881L109.555 89.3881Z" fill="#172A3A"/>
<path d="M93.6197 315.958H25.3255C24.5711 315.957 23.8478 315.657 23.3144 315.124C22.7809 314.59 22.4808 313.866 22.4799 313.112V241.962C22.4808 241.208 22.7809 240.484 23.3144 239.951C23.8478 239.417 24.5711 239.117 25.3255 239.116H93.6197C94.3741 239.117 95.0974 239.417 95.6308 239.951C96.1643 240.484 96.4644 241.208 96.4653 241.962V313.112C96.4644 313.866 96.1643 314.59 95.6308 315.124C95.0974 315.657 94.3741 315.957 93.6197 315.958V315.958ZM25.3255 240.254C24.8728 240.255 24.4389 240.435 24.1188 240.755C23.7987 241.075 23.6186 241.51 23.6182 241.962V313.112C23.6186 313.565 23.7987 313.999 24.1188 314.319C24.4389 314.639 24.8728 314.819 25.3255 314.82H93.6197C94.0724 314.819 94.5064 314.639 94.8264 314.319C95.1465 313.999 95.3266 313.565 95.3271 313.112V241.962C95.3266 241.51 95.1465 241.075 94.8264 240.755C94.5064 240.435 94.0724 240.255 93.6197 240.254H25.3255Z" fill="#172A3A"/>
<path d="M177.849 315.958H109.555C108.8 315.957 108.077 315.657 107.544 315.124C107.01 314.59 106.71 313.866 106.709 313.112V241.962C106.71 241.208 107.01 240.484 107.544 239.951C108.077 239.417 108.8 239.117 109.555 239.116H177.849C178.603 239.117 179.327 239.417 179.86 239.951C180.393 240.484 180.694 241.208 180.694 241.962V313.112C180.694 313.866 180.393 314.59 179.86 315.124C179.327 315.657 178.603 315.957 177.849 315.958V315.958ZM109.555 240.254C109.102 240.255 108.668 240.435 108.348 240.755C108.028 241.075 107.848 241.51 107.847 241.962V313.112C107.848 313.565 108.028 313.999 108.348 314.319C108.668 314.639 109.102 314.819 109.555 314.82H177.849C178.302 314.819 178.736 314.639 179.056 314.319C179.376 313.999 179.556 313.565 179.556 313.112V241.962C179.556 241.51 179.376 241.075 179.056 240.755C178.736 240.435 178.302 240.255 177.849 240.254H109.555Z" fill="#172A3A"/>
<path d="M48.0632 184.055C54.4649 184.055 59.6545 178.864 59.6545 172.46C59.6545 166.056 54.4649 160.865 48.0632 160.865C41.6614 160.865 36.4718 166.056 36.4718 172.46C36.4718 178.864 41.6614 184.055 48.0632 184.055Z" fill="#172A3A"/>
<path d="M74.8337 164.73C74.3214 164.73 73.83 164.934 73.4677 165.296C73.1054 165.658 72.9018 166.15 72.9018 166.663C72.9018 167.175 73.1054 167.667 73.4677 168.029C73.83 168.392 74.3214 168.595 74.8337 168.595H165.909C166.421 168.594 166.911 168.39 167.272 168.027C167.633 167.665 167.836 167.174 167.836 166.663C167.836 166.151 167.633 165.66 167.272 165.298C166.911 164.935 166.421 164.731 165.909 164.73H74.8337Z" fill="#172A3A"/>
<path d="M74.8337 176.325C74.3217 176.325 73.8304 176.528 73.4678 176.889C73.1051 177.251 72.9008 177.742 72.8998 178.254C72.8987 178.766 73.1009 179.258 73.462 179.621C73.8231 179.984 74.3136 180.189 74.8256 180.19H114.024C114.536 180.19 115.027 179.987 115.39 179.624C115.752 179.262 115.956 178.77 115.956 178.258C115.956 177.745 115.752 177.254 115.39 176.891C115.027 176.529 114.536 176.325 114.024 176.325H74.8337Z" fill="#172A3A"/>
<path d="M39.1723 194.863C37.7027 194.863 36.5068 195.73 36.5068 196.795C36.5068 197.861 37.7027 198.728 39.1723 198.728H164.828C166.298 198.728 167.493 197.861 167.493 196.795C167.493 195.73 166.298 194.863 164.828 194.863H39.1723Z" fill="#172A3A"/>
<path d="M39.1723 206.458C37.7027 206.458 36.5068 207.325 36.5068 208.391C36.5068 209.456 37.7027 210.323 39.1723 210.323H164.828C166.298 210.323 167.493 209.456 167.493 208.391C167.493 207.325 166.298 206.458 164.828 206.458H39.1723Z" fill="#172A3A"/>
<path d="M49.2014 61.0852C55.6032 61.0852 60.7928 55.8938 60.7928 49.4899C60.7928 43.086 55.6032 37.8947 49.2014 37.8947C42.7997 37.8947 37.61 43.086 37.61 49.4899C37.61 55.8938 42.7997 61.0852 49.2014 61.0852Z" fill="#172A3A"/>
<path d="M75.972 41.7597C75.4604 41.7609 74.9702 41.9651 74.6088 42.3274C74.2475 42.6897 74.0446 43.1805 74.0446 43.6923C74.0446 44.204 74.2475 44.6949 74.6088 45.0572C74.9702 45.4195 75.4604 45.6236 75.972 45.6248H167.047C167.301 45.6256 167.553 45.5764 167.787 45.4799C168.022 45.3833 168.236 45.2415 168.416 45.0624C168.596 44.8833 168.739 44.6705 168.836 44.4361C168.934 44.2017 168.985 43.9503 168.985 43.6964C168.986 43.4424 168.936 43.1908 168.839 42.956C168.743 42.7212 168.601 42.5078 168.421 42.328C168.242 42.1481 168.029 42.0053 167.795 41.9078C167.561 41.8103 167.309 41.76 167.055 41.7597C167.053 41.7597 167.05 41.7597 167.047 41.7597H75.972Z" fill="#172A3A"/>
<path d="M75.972 53.355C75.4602 53.3559 74.9696 53.5599 74.608 53.9222C74.2464 54.2845 74.0433 54.7756 74.0433 55.2876C74.0433 55.7996 74.2464 56.2906 74.608 56.653C74.9696 57.0153 75.4602 57.2193 75.972 57.2201H115.162C115.674 57.2212 116.166 57.0186 116.529 56.657C116.892 56.2953 117.097 55.8042 117.098 55.2916C117.099 54.7791 116.896 54.2871 116.535 53.9239C116.173 53.5608 115.682 53.3561 115.17 53.355C115.167 53.355 115.165 53.355 115.162 53.355H75.972Z" fill="#172A3A"/>
<path d="M93.5593 132.079H29.4934L44.5702 105.956C44.8404 105.488 45.2291 105.099 45.6971 104.829C46.1652 104.558 46.6961 104.416 47.2366 104.416C47.777 104.416 48.308 104.558 48.776 104.829C49.244 105.099 49.6327 105.488 49.9029 105.956L56.3435 117.115L67.2948 98.141C67.6331 97.5548 68.1197 97.068 68.7057 96.7295C69.2917 96.3911 69.9565 96.2129 70.6331 96.2129C71.3098 96.2129 71.9745 96.3911 72.5605 96.7295C73.1465 97.068 73.6331 97.5548 73.9714 98.141L93.5593 132.079ZM31.4647 130.941H91.5879L72.9855 98.7102C72.7471 98.2971 72.4043 97.9541 71.9913 97.7155C71.5784 97.477 71.11 97.3515 70.6332 97.3515C70.1563 97.3515 69.6879 97.477 69.275 97.7155C68.8621 97.9541 68.5192 98.2971 68.2809 98.7102L56.3436 119.393L48.917 106.525C48.7468 106.23 48.5018 105.985 48.2068 105.815C47.9119 105.644 47.5773 105.555 47.2366 105.555C46.896 105.555 46.5614 105.644 46.2664 105.815C45.9714 105.985 45.7265 106.23 45.5562 106.525L31.4647 130.941Z" fill="#172A3A"/>
<path d="M175.512 132.079H111.446L126.523 105.956C126.793 105.488 127.182 105.099 127.65 104.829C128.118 104.558 128.649 104.416 129.189 104.416C129.73 104.416 130.261 104.558 130.729 104.829C131.197 105.099 131.585 105.488 131.856 105.956L138.296 117.115L149.248 98.141C149.586 97.5548 150.072 97.068 150.658 96.7295C151.244 96.3911 151.909 96.2129 152.586 96.2129C153.262 96.2129 153.927 96.3911 154.513 96.7295C155.099 97.068 155.586 97.5548 155.924 98.141L175.512 132.079ZM113.417 130.941H173.541L154.938 98.7102C154.7 98.2971 154.357 97.9541 153.944 97.7156C153.531 97.477 153.063 97.3515 152.586 97.3515C152.109 97.3515 151.641 97.477 151.228 97.7156C150.815 97.9541 150.472 98.2971 150.234 98.7102L138.296 119.393L130.87 106.525C130.699 106.23 130.455 105.985 130.16 105.815C129.865 105.644 129.53 105.555 129.189 105.555C128.849 105.555 128.514 105.644 128.219 105.815C127.924 105.985 127.679 106.23 127.509 106.525L113.417 130.941Z" fill="#172A3A"/>
<path d="M93.6197 132.072H25.3255C24.5711 132.071 23.8478 131.771 23.3144 131.238C22.7809 130.704 22.4808 129.98 22.4799 129.226V91.096C22.4808 90.3414 22.7809 89.6179 23.3144 89.0842C23.8478 88.5506 24.5711 88.2504 25.3255 88.2495H93.6197C94.3741 88.2504 95.0974 88.5506 95.6308 89.0842C96.1643 89.6179 96.4644 90.3414 96.4653 91.096V129.226C96.4644 129.98 96.1643 130.704 95.6308 131.238C95.0974 131.771 94.3741 132.071 93.6197 132.072V132.072ZM25.3255 89.3881C24.8728 89.3886 24.4389 89.5687 24.1188 89.8889C23.7987 90.2091 23.6186 90.6432 23.6181 91.0961V129.226C23.6186 129.679 23.7987 130.113 24.1188 130.433C24.4389 130.753 24.8728 130.933 25.3255 130.934H93.6197C94.0724 130.933 94.5064 130.753 94.8264 130.433C95.1465 130.113 95.3266 129.679 95.3271 129.226V91.096C95.3266 90.6432 95.1465 90.2091 94.8264 89.8889C94.5064 89.5687 94.0724 89.3886 93.6197 89.3881L25.3255 89.3881Z" fill="#172A3A"/>
<path d="M39.8776 253.788C39.6237 253.788 39.3721 253.837 39.1373 253.934C38.9026 254.031 38.6892 254.174 38.5095 254.353C38.3298 254.533 38.1872 254.746 38.0899 254.98C37.9926 255.215 37.9425 255.467 37.9425 255.721C37.9425 255.975 37.9926 256.226 38.0899 256.461C38.1872 256.696 38.3298 256.909 38.5095 257.088C38.6892 257.268 38.9026 257.41 39.1373 257.507C39.3721 257.604 39.6237 257.654 39.8776 257.653H79.0676C79.3215 257.654 79.5731 257.604 79.8079 257.507C80.0426 257.41 80.256 257.268 80.4357 257.088C80.6154 256.909 80.758 256.696 80.8553 256.461C80.9526 256.226 81.0027 255.975 81.0027 255.721C81.0027 255.467 80.9526 255.215 80.8553 254.98C80.758 254.746 80.6154 254.533 80.4357 254.353C80.256 254.174 80.0426 254.031 79.8079 253.934C79.5731 253.837 79.3215 253.788 79.0676 253.788H39.8776Z" fill="#172A3A"/>
<path d="M39.8777 265.174C39.3653 265.174 38.8739 265.378 38.5116 265.74C38.1493 266.103 37.9457 266.594 37.9457 267.107C37.9457 267.619 38.1493 268.111 38.5116 268.473C38.8739 268.836 39.3653 269.039 39.8777 269.039H79.0676C79.58 269.039 80.0713 268.836 80.4336 268.473C80.7959 268.111 80.9995 267.619 80.9995 267.107C80.9995 266.594 80.7959 266.103 80.4336 265.74C80.0713 265.378 79.58 265.174 79.0676 265.174H39.8777Z" fill="#172A3A"/>
<path d="M59.4727 301.286C57.0676 301.286 54.7165 300.573 52.7168 299.236C50.717 297.899 49.1584 295.999 48.238 293.777C47.3176 291.554 47.0768 289.108 47.546 286.748C48.0152 284.389 49.1734 282.221 50.874 280.52C52.5747 278.819 54.7415 277.66 57.1004 277.191C59.4593 276.721 61.9043 276.962 64.1263 277.883C66.3484 278.804 68.2476 280.363 69.5838 282.363C70.92 284.364 71.6332 286.716 71.6332 289.122C71.6295 292.347 70.3471 295.439 68.0674 297.719C65.7877 300 62.6967 301.282 59.4727 301.286V301.286ZM59.4727 278.096C57.2927 278.096 55.1617 278.742 53.3491 279.954C51.5365 281.165 50.1238 282.887 49.2896 284.902C48.4553 286.917 48.237 289.134 48.6623 291.273C49.0876 293.411 50.1374 295.376 51.6789 296.918C53.2204 298.46 55.1843 299.51 57.3224 299.936C59.4605 300.361 61.6767 300.143 63.6908 299.308C65.7048 298.474 67.4262 297.06 68.6374 295.247C69.8485 293.434 70.4949 291.302 70.4949 289.122C70.4915 286.198 69.3292 283.396 67.2628 281.329C65.1965 279.262 62.3949 278.099 59.4727 278.096V278.096Z" fill="#172A3A"/>
<path d="M163.297 301.286C163.551 301.286 163.802 301.237 164.037 301.14C164.272 301.043 164.485 300.901 164.665 300.721C164.845 300.542 164.987 300.328 165.084 300.094C165.182 299.859 165.232 299.608 165.232 299.354C165.232 299.099 165.182 298.848 165.084 298.613C164.987 298.379 164.845 298.165 164.665 297.986C164.485 297.806 164.272 297.664 164.037 297.567C163.802 297.47 163.551 297.421 163.297 297.421H124.107C123.595 297.422 123.104 297.626 122.743 297.988C122.381 298.35 122.178 298.842 122.178 299.354C122.178 299.865 122.381 300.357 122.743 300.719C123.104 301.081 123.595 301.285 124.107 301.286H163.297Z" fill="#172A3A"/>
<path d="M163.297 289.9C163.551 289.9 163.802 289.851 164.037 289.754C164.272 289.657 164.485 289.514 164.665 289.335C164.845 289.156 164.987 288.942 165.084 288.708C165.182 288.473 165.232 288.221 165.232 287.967C165.232 287.713 165.182 287.462 165.084 287.227C164.987 286.992 164.845 286.779 164.665 286.6C164.485 286.42 164.272 286.278 164.037 286.181C163.802 286.084 163.551 286.034 163.297 286.035H124.107C123.594 286.035 123.103 286.238 122.741 286.601C122.378 286.963 122.175 287.455 122.175 287.967C122.175 288.48 122.378 288.971 122.741 289.334C123.103 289.696 123.594 289.9 124.107 289.9H163.297Z" fill="#172A3A"/>
<path d="M143.702 253.788C146.107 253.788 148.458 254.502 150.458 255.838C152.457 257.175 154.016 259.075 154.936 261.297C155.857 263.52 156.098 265.966 155.628 268.326C155.159 270.686 154.001 272.853 152.3 274.554C150.6 276.256 148.433 277.414 146.074 277.883C143.715 278.353 141.27 278.112 139.048 277.191C136.826 276.27 134.927 274.711 133.591 272.711C132.254 270.71 131.541 268.359 131.541 265.953V265.953C131.545 262.728 132.827 259.636 135.107 257.355C137.387 255.075 140.478 253.792 143.702 253.788V253.788ZM143.702 276.979C145.882 276.979 148.013 276.332 149.825 275.12C151.638 273.909 153.051 272.187 153.885 270.172C154.719 268.157 154.937 265.94 154.512 263.802C154.087 261.663 153.037 259.698 151.496 258.156C149.954 256.614 147.99 255.564 145.852 255.139C143.714 254.713 141.498 254.932 139.484 255.766C137.47 256.601 135.748 258.014 134.537 259.827C133.326 261.64 132.679 263.772 132.679 265.953V265.953C132.683 268.876 133.845 271.678 135.912 273.745C137.978 275.812 140.779 276.975 143.702 276.979V276.979Z" fill="#172A3A"/>
<path opacity="0.3" d="M125.073 99.2837C140.971 99.2837 153.858 86.392 153.858 70.4893C153.858 54.5866 140.971 41.6948 125.073 41.6948C109.176 41.6948 96.2885 54.5866 96.2885 70.4893C96.2885 86.392 109.176 99.2837 125.073 99.2837Z" fill="#EB5E28"/>
<path opacity="0.3" d="M125.073 89.6855C135.672 89.6855 144.263 81.0911 144.263 70.4893C144.263 59.8875 135.672 51.293 125.073 51.293C114.475 51.293 105.883 59.8875 105.883 70.4893C105.883 81.0911 114.475 89.6855 125.073 89.6855Z" fill="#EB5E28"/>
<path d="M125.073 83.82C132.433 83.82 138.4 77.8516 138.4 70.4893C138.4 63.1269 132.433 57.1585 125.073 57.1585C117.713 57.1585 111.747 63.1269 111.747 70.4893C111.747 77.8516 117.713 83.82 125.073 83.82Z" fill="#EB5E28"/>
<path opacity="0.3" d="M59.508 286.406C71.2607 286.406 80.7881 276.875 80.7881 265.118C80.7881 253.362 71.2607 243.831 59.508 243.831C47.7553 243.831 38.2279 253.362 38.2279 265.118C38.2279 276.875 47.7553 286.406 59.508 286.406Z" fill="#EB5E28"/>
<path opacity="0.3" d="M59.508 279.31C67.3431 279.31 73.6947 272.956 73.6947 265.118C73.6947 257.281 67.3431 250.927 59.508 250.927C51.6729 250.927 45.3213 257.281 45.3213 265.118C45.3213 272.956 51.6729 279.31 59.508 279.31Z" fill="#EB5E28"/>
<path d="M59.508 274.973C64.9491 274.973 69.3599 270.561 69.3599 265.118C69.3599 259.675 64.9491 255.263 59.508 255.263C54.067 255.263 49.6561 259.675 49.6561 265.118C49.6561 270.561 54.067 274.973 59.508 274.973Z" fill="#EB5E28"/>
<path opacity="0.3" d="M147.995 206.421C161.514 206.421 172.473 195.458 172.473 181.934C172.473 168.411 161.514 157.448 147.995 157.448C134.475 157.448 123.516 168.411 123.516 181.934C123.516 195.458 134.475 206.421 147.995 206.421Z" fill="#EB5E28"/>
<path opacity="0.3" d="M147.995 198.259C157.007 198.259 164.313 190.95 164.313 181.934C164.313 172.919 157.007 165.61 147.995 165.61C138.982 165.61 131.676 172.919 131.676 181.934C131.676 190.95 138.982 198.259 147.995 198.259Z" fill="#EB5E28"/>
<path d="M147.995 193.271C154.253 193.271 159.327 188.195 159.327 181.934C159.327 175.673 154.253 170.598 147.995 170.598C141.736 170.598 136.662 175.673 136.662 181.934C136.662 188.195 141.736 193.271 147.995 193.271Z" fill="#EB5E28"/>
<path d="M261.78 219.954L256.745 228.463C256.247 229.305 255.561 230.02 254.741 230.554C253.921 231.087 252.99 231.423 252.019 231.537C251.048 231.651 250.063 231.539 249.142 231.21C248.222 230.881 247.389 230.344 246.71 229.64V229.64C246.078 228.985 245.594 228.202 245.291 227.344C244.988 226.486 244.873 225.572 244.953 224.666C245.033 223.759 245.307 222.88 245.757 222.089C246.206 221.297 246.821 220.612 247.558 220.078L255.748 214.155C263.613 203.505 268.132 185.405 271.983 165.818L287.986 167.695C283.861 183.716 273.997 201.478 261.78 219.954Z" fill="#FFB8B8"/>
<path d="M263.763 171.53L289.785 178.913V133.455L286.331 134.573C283.313 135.549 280.571 137.23 278.331 139.476C276.092 141.723 274.418 144.47 273.45 147.491L263.763 171.53Z" fill="#E8F5FF"/>
<path d="M316.973 334.324L307.263 333.935C304.074 301.107 300.003 271.294 291.727 255.841C283.713 264.429 281.892 291.559 280.551 328.496H271.142C261.251 285.928 258.753 255.747 271.142 227.09H321.634L316.973 334.324Z" fill="#172A3A"/>
<path d="M281.137 335.079L264.284 343.692C263.832 343.922 263.339 344.058 262.833 344.091C262.327 344.123 261.82 344.052 261.344 343.881C260.867 343.71 260.43 343.443 260.06 343.096C259.69 342.75 259.395 342.331 259.193 341.867V341.867C258.834 341.042 258.787 340.114 259.061 339.257C259.335 338.4 259.91 337.672 260.681 337.208L262.979 335.822L269.378 326.252L280.284 325.391L282.279 327.304C282.835 327.836 283.254 328.493 283.504 329.221C283.753 329.948 283.825 330.725 283.713 331.486C283.601 332.247 283.309 332.97 282.861 333.595C282.413 334.22 281.822 334.729 281.137 335.079Z" fill="black"/>
<path d="M315.386 343.15L296.468 343.682C295.961 343.696 295.457 343.606 294.987 343.418C294.516 343.23 294.089 342.948 293.732 342.588C293.375 342.229 293.095 341.8 292.91 341.328C292.725 340.856 292.638 340.352 292.655 339.845C292.686 338.946 293.042 338.089 293.657 337.433C294.272 336.776 295.105 336.366 296 336.278L298.67 336.015L308.559 330.125L318.778 334.036L319.757 336.62C320.03 337.34 320.127 338.114 320.039 338.878C319.952 339.642 319.683 340.374 319.255 341.013C318.827 341.652 318.253 342.18 317.58 342.552C316.907 342.923 316.154 343.128 315.386 343.15V343.15Z" fill="black"/>
<path d="M296.151 125.049C303.164 125.049 308.849 119.362 308.849 112.347C308.849 105.332 303.164 99.6452 296.151 99.6452C289.138 99.6452 283.453 105.332 283.453 112.347C283.453 119.362 289.138 125.049 296.151 125.049Z" fill="#FFB8B8"/>
<path d="M316.973 132.678L290.562 142.779C292.1 134.485 292.12 126.67 289.591 119.662L306.486 116.748C305.069 124.034 309.46 128.984 316.973 132.678Z" fill="#FFB8B8"/>
<path d="M327.848 234.472C304.603 238.887 285.884 236.055 270.754 227.479C277.752 203.359 278.747 176.672 276.915 148.777C276.735 145.987 277.425 143.211 278.892 140.831C280.358 138.452 282.527 136.587 285.1 135.495L291.727 132.678C295.301 140.801 303.537 136.12 312.312 129.958L323.156 134.751C324.878 135.511 326.326 136.78 327.307 138.386C328.289 139.993 328.756 141.861 328.646 143.741C326.478 180.796 323.565 220.524 327.848 234.472Z" fill="#E8F5FF"/>
<path d="M335.616 229.033L334.925 238.943C334.799 240.749 333.964 242.432 332.602 243.624C331.239 244.816 329.461 245.421 327.655 245.305V245.305C326.471 245.23 325.328 244.848 324.336 244.198C323.344 243.548 322.538 242.651 321.996 241.596C321.455 240.54 321.196 239.363 321.246 238.177C321.296 236.992 321.653 235.84 322.282 234.834L327.848 225.924C331.137 213.099 328.528 194.627 324.741 175.027L340.277 170.753C342.471 187.151 340 207.319 335.616 229.033Z" fill="#FFB8B8"/>
<path d="M310.687 104.095C310.687 104.095 313.06 98.8709 306.889 96.4964C306.889 96.4964 301.666 87.948 291.222 93.6469C291.222 93.6469 284.101 96.4964 284.101 104.095C284.101 111.693 281.727 113.118 281.727 113.118C281.727 113.118 285.262 109.49 286.211 106.641C287.161 103.792 294.545 103.145 297.394 105.995C300.242 108.844 307.363 108.369 307.363 108.369L306.889 118.817C306.889 118.817 309.262 112.643 310.212 112.643C311.161 112.643 312.111 104.095 310.687 104.095Z" fill="#440000"/>
<path d="M345.715 171.142L319.692 178.524V133.066L323.146 134.184C326.164 135.161 328.906 136.842 331.146 139.088C333.386 141.334 335.059 144.081 336.028 147.102L345.715 171.142Z" fill="#E8F5FF"/>
<path d="M443 343.644H119.92V344.711H443V343.644Z" fill="#172A3A"/>
<path d="M363.882 257.583C370.945 267.571 372.811 324.413 373.227 342.633C373.237 343.044 373.248 343.433 373.253 343.801H391.132C391.351 343.412 391.553 343.028 391.745 342.633C402.342 321.709 396.462 296.621 396.153 295.352C396.958 299.34 393.317 310.901 389.202 322.099C386.692 287.668 365.226 259.321 363.882 257.583Z" fill="#173A2F"/>
</g>
<defs>
<clipPath id="clip0_11_241">
<rect width="443" height="345" fill="white"/>
</clipPath>
</defs>
</svg>
